<svg width="308" height="106" viewBox="0 0 308 106" fill="none" xmlns="http://www.w3.org/2000/svg">
<g clip-path="url(#clip0_237_242)">
<path d="M301.475 83.5938C301.384 81.8649 300.42 80.3005 298.921 79.4379L297.848 78.8202C295.406 77.4203 294.56 74.306 295.957 71.8607C296.14 71.5464 296.351 71.254 296.592 70.9835L297.413 70.0697C299.296 67.9716 299.125 64.7441 297.03 62.858C295.742 61.6994 293.954 61.2717 292.282 61.7286L291.096 62.0539C288.378 62.7923 285.575 61.184 284.838 58.4609C284.743 58.1136 284.688 57.7591 284.666 57.4009L284.604 56.1691C284.455 53.3509 282.05 51.1907 279.236 51.3406C277.51 51.432 275.948 52.3969 275.087 53.8992L274.47 54.9738C273.076 57.4191 269.963 58.2671 267.522 56.8709C267.208 56.6881 266.916 56.4761 266.646 56.2349L265.734 55.4125C263.639 53.5264 260.417 53.6982 258.534 55.7963C257.377 57.0865 256.95 58.8776 257.406 60.5516L257.731 61.7396C258.468 64.459 256.87 67.2589 254.155 68.0009H254.147C253.797 68.0959 253.439 68.1507 253.078 68.1727L252.939 68.18C253.122 68.9147 253.206 69.6749 253.173 70.4389C253.206 72.3286 252.691 74.1891 251.684 75.7864C251.177 76.5832 250.56 77.3033 249.867 77.9283L250.651 78.3816C253.093 79.7815 253.939 82.8957 252.542 85.341C252.359 85.6554 252.148 85.9478 251.907 86.2183L251.086 87.132C249.203 89.2301 249.374 92.4576 251.469 94.3437C252.757 95.5024 254.545 95.93 256.217 95.4732L257.403 95.1478C260.114 94.4095 262.913 96.0105 263.654 98.7299V98.7372C263.749 99.0881 263.803 99.4463 263.825 99.8082L263.887 101.04C264.037 103.858 266.442 106.018 269.255 105.868C270.982 105.777 272.543 104.812 273.405 103.31L274.021 102.235C275.419 99.7899 278.528 98.9419 280.97 100.342C281.283 100.525 281.575 100.737 281.845 100.978L282.758 101.8C284.853 103.686 288.075 103.515 289.958 101.416C291.115 100.126 291.542 98.3352 291.085 96.6611L290.761 95.4732C290.024 92.7537 291.622 89.9538 294.337 89.2118H294.344C294.695 89.1168 295.052 89.062 295.414 89.04L296.643 88.9779L296.651 88.9669C299.464 88.8171 301.621 86.4083 301.471 83.5902L301.475 83.5938ZM282.911 85.8856C278.89 90.6776 271.755 91.2953 266.971 87.2673C262.187 83.2393 261.57 76.0934 265.592 71.3015C269.613 66.5096 276.747 65.8918 281.532 69.9198C286.316 73.9478 286.933 81.0937 282.911 85.8856Z" fill="#F59B35"/>
<path d="M297.165 37.0817L296.337 36.8039C294.439 36.1679 293.414 34.11 294.049 32.2093C294.129 31.9681 294.235 31.7342 294.366 31.5149L294.815 30.7619C295.833 29.0367 295.261 26.8107 293.538 25.7909C292.48 25.1658 291.177 25.1183 290.079 25.6666L289.29 26.0577C287.502 26.9532 285.331 26.2295 284.433 24.4384C284.32 24.2082 284.229 23.9633 284.163 23.7147L283.948 22.8667C283.451 20.9258 281.477 19.7562 279.536 20.2533C278.342 20.5603 277.39 21.4522 276.999 22.6218L276.726 23.4516C276.094 25.3522 274.044 26.3757 272.15 25.7433C272.15 25.7433 272.146 25.7433 272.142 25.7433C271.898 25.6593 271.664 25.5533 271.442 25.4217L270.69 24.9721C268.967 23.9523 266.745 24.5225 265.727 26.2514C265.103 27.3114 265.055 28.6163 265.603 29.7165L265.993 30.506C266.887 32.2971 266.161 34.4719 264.377 35.3674C264.147 35.4807 263.902 35.5721 263.654 35.6379L262.807 35.8535C260.87 36.3507 259.702 38.3281 260.198 40.2727C260.505 41.4679 261.395 42.4219 262.563 42.813L263.391 43.0908C265.289 43.7231 266.311 45.7773 265.679 47.6744C265.679 47.6744 265.679 47.678 265.679 47.6817C265.595 47.9266 265.49 48.1605 265.358 48.3835L264.909 49.1364C263.891 50.8617 264.464 53.0877 266.187 54.1075C267.245 54.7325 268.548 54.78 269.646 54.2318L270.434 53.8407C272.223 52.9451 274.394 53.6725 275.288 55.4599C275.401 55.6902 275.492 55.9351 275.558 56.1836L275.773 57.0316C276.27 58.9725 278.244 60.1422 280.185 59.6451C281.379 59.338 282.331 58.4462 282.722 57.2765L282.999 56.4468C283.63 54.5461 285.681 53.5227 287.575 54.155C287.575 54.155 287.579 54.155 287.582 54.155C287.827 54.2391 288.06 54.3451 288.283 54.4767L289.035 54.9262H289.042C290.765 55.9424 292.987 55.3722 294.005 53.6469C294.629 52.5869 294.677 51.282 294.129 50.1818L293.739 49.3923C292.845 47.6013 293.571 45.4264 295.355 44.5309C295.585 44.4176 295.83 44.3262 296.078 44.2604L296.925 44.0448C298.862 43.5477 300.03 41.5702 299.534 39.6257C299.227 38.4304 298.337 37.4764 297.169 37.0853L297.165 37.0817ZM282.119 47.6744C277.857 48.9208 273.394 46.4755 272.146 42.2062C270.898 37.937 273.343 33.4667 277.605 32.2167C281.868 30.9702 286.331 33.4155 287.579 37.6848C288.827 41.954 286.382 46.4243 282.119 47.6744Z" fill="#FCC243"/>
<path d="M265.227 41.0403C264.964 40.196 264.292 39.5454 263.442 39.3078L262.836 39.1433C261.457 38.7632 260.647 37.3303 261.026 35.9487C261.026 35.9487 261.026 35.9487 261.026 35.945C261.074 35.7659 261.143 35.5941 261.231 35.4333L261.526 34.8814C262.194 33.6094 261.701 32.034 260.432 31.3651C259.651 30.9557 258.713 30.9703 257.943 31.4053L257.392 31.716C256.144 32.4251 254.556 31.9828 253.848 30.7328C253.757 30.5719 253.684 30.4038 253.629 30.2283L253.443 29.6252C253.012 28.2509 251.553 27.487 250.184 27.9183C249.341 28.1814 248.692 28.854 248.455 29.7056L248.29 30.3124C247.911 31.6941 246.48 32.5055 245.101 32.1254C245.101 32.1254 245.101 32.1254 245.097 32.1254C244.918 32.0779 244.747 32.0084 244.586 31.9207L244.035 31.6246C242.765 30.9557 241.192 31.4492 240.525 32.7212C240.116 33.5034 240.131 34.4427 240.565 35.214L240.875 35.7659C241.579 37.016 241.141 38.606 239.893 39.3151C239.733 39.4065 239.561 39.4796 239.386 39.5344L238.784 39.7208C237.412 40.1521 236.649 41.6142 237.08 42.9849C237.342 43.8292 238.014 44.4799 238.864 44.7174L239.47 44.8819C240.382 45.1341 241.043 45.8469 241.276 46.6985C244.002 46.8667 246.637 47.7805 248.874 49.3632C250.962 50.9788 252.272 53.3583 252.538 55.9388C253.173 55.6098 253.655 55.0323 253.848 54.3305L254.012 53.7238C254.392 52.3421 255.822 51.5307 257.202 51.9108C257.202 51.9108 257.202 51.9108 257.206 51.9108C257.384 51.9583 257.556 52.0278 257.716 52.1155L258.267 52.4116C259.537 53.0805 261.11 52.587 261.778 51.315C262.187 50.5328 262.172 49.5934 261.738 48.8222L261.428 48.2703C260.723 47.0202 261.161 45.4302 262.409 44.7211C262.57 44.6297 262.742 44.5566 262.917 44.5018L263.519 44.3154C264.891 43.8841 265.654 42.422 265.223 41.0476L265.227 41.0403ZM251.235 47.2103C251.235 47.2103 251.232 47.2103 251.228 47.2103C248.36 47.2541 245.999 44.9623 245.951 42.093C245.904 39.2164 248.192 36.8479 251.06 36.8003C253.932 36.7528 256.297 39.0446 256.344 41.9176C256.392 44.7942 254.104 47.1628 251.235 47.2103Z" fill="#FFD75F"/>
<path d="M234.412 78.462C232.712 77.7968 231.23 76.671 230.132 75.2126C229.04 73.703 228.449 71.89 228.442 70.0295H236.419C236.467 71.0201 236.89 71.9558 237.602 72.643C238.335 73.2644 239.273 73.586 240.233 73.5422C241.171 73.5897 242.098 73.3192 242.864 72.7746C243.506 72.2592 243.864 71.466 243.827 70.6436C243.849 69.9345 243.572 69.2473 243.061 68.7539C242.514 68.2312 241.875 67.8145 241.174 67.5221C240.134 67.0981 239.072 66.7289 237.996 66.4219C236.328 65.9284 234.7 65.3107 233.128 64.5724C231.843 63.9364 230.73 63.0006 229.883 61.8456C228.924 60.4749 228.442 58.8191 228.522 57.1451C228.409 54.5243 229.573 52.0132 231.642 50.4049C233.992 48.6943 236.854 47.8317 239.758 47.9669C242.689 47.8353 245.579 48.6943 247.966 50.4049C250.049 52.0424 251.275 54.5426 251.297 57.1962H243.181C243.163 56.2897 242.765 55.4381 242.083 54.8423C241.353 54.2502 240.43 53.9468 239.492 53.9833C238.696 53.9468 237.915 54.2026 237.299 54.7107C236.722 55.2444 236.419 56.012 236.467 56.7942C236.456 57.7737 236.999 58.6766 237.872 59.1189C239.266 59.8718 240.736 60.4749 242.254 60.9209C243.911 61.4618 245.532 62.1051 247.104 62.8544C248.371 63.4904 249.473 64.4042 250.33 65.5337C251.279 66.8459 251.757 68.4395 251.692 70.0551C251.721 71.7511 251.257 73.4142 250.356 74.8507C249.411 76.3347 248.068 77.519 246.48 78.2756C244.605 79.1638 242.546 79.6024 240.474 79.5476C238.404 79.5878 236.346 79.2113 234.419 78.4474L234.408 78.4547L234.412 78.462Z" fill="black"/>
<path d="M77.4307 13.7653C76.8176 12.698 75.7045 12.0145 74.4747 11.9524L73.5953 11.9085C71.5954 11.8061 70.0591 10.1028 70.1576 8.10346C70.1722 7.84394 70.2124 7.59173 70.2817 7.33953L70.508 6.49518C71.0262 4.55794 69.8766 2.56953 67.9425 2.05049C66.7565 1.73249 65.4902 2.03953 64.5779 2.86194L63.9283 3.45042C62.4503 4.79553 60.1622 4.68222 58.8229 3.20187C58.8229 3.20187 58.8193 3.19456 58.8156 3.19456C58.6441 3.00449 58.4908 2.79615 58.3595 2.57318L57.9216 1.81291C56.9217 0.0766986 54.7029 -0.519095 52.9695 0.482423C51.9039 1.09649 51.2215 2.21132 51.1594 3.44311L51.1156 4.32401C51.0135 6.32704 49.3129 7.86587 47.3167 7.76718C47.0576 7.75256 46.8058 7.71235 46.554 7.64291L45.711 7.41629C43.7769 6.89725 41.7917 8.04863 41.2735 9.98587C40.956 11.1738 41.2626 12.4421 42.0836 13.3559L42.6712 14.0066C44.0141 15.4942 43.8973 17.786 42.4157 19.1311C42.226 19.3029 42.018 19.4564 41.7954 19.5844L41.0363 20.0193C39.3029 21.0208 38.7081 23.2432 39.708 24.9794C40.321 26.0467 41.4341 26.7302 42.6639 26.7924L43.5434 26.8362C45.5432 26.9386 47.0795 28.6419 46.981 30.6413C46.9664 30.9008 46.9263 31.153 46.8569 31.4052L46.6307 32.2495C46.1125 34.1868 47.262 36.1752 49.1961 36.6942C50.3821 37.0122 51.6484 36.7052 52.5608 35.8828L53.2103 35.2943C54.6883 33.9492 56.9764 34.0625 58.3157 35.5428C58.3157 35.5428 58.3193 35.5502 58.323 35.5502C58.4945 35.7402 58.6478 35.9486 58.7791 36.1715L59.2171 36.9355C60.217 38.6717 62.4357 39.2675 64.1691 38.2659C65.2347 37.6519 65.9172 36.537 65.9792 35.3053L66.023 34.4244C66.1252 32.4213 67.8257 30.8825 69.8219 30.9812C70.081 30.9958 70.3328 31.036 70.5846 31.1055L71.4276 31.3321C73.3617 31.8511 75.3469 30.6997 75.8651 28.7625C76.1826 27.5746 75.8761 26.3062 75.055 25.3924L74.4674 24.7418C73.1245 23.2615 73.2376 20.9697 74.7156 19.6282C74.7156 19.6282 74.7229 19.6246 74.7229 19.6209C74.9127 19.4491 75.1207 19.2956 75.3433 19.164L76.106 18.7254C77.8394 17.7239 78.4342 15.5015 77.4343 13.7653H77.4307ZM58.7135 27.4576C54.2723 27.4576 50.6741 23.8536 50.6741 19.4053C50.6741 14.9569 54.2723 11.3529 58.7135 11.3529C63.1546 11.3529 66.7528 14.9569 66.7528 19.4053C66.7528 23.8536 63.1546 27.4576 58.7135 27.4576Z" fill="#8DB53C"/>
<path d="M79.6309 40.4408C79.1091 39.7499 78.277 39.3698 77.4122 39.4283L76.7991 39.4758C75.3977 39.5781 74.1789 38.5254 74.0767 37.1219C74.0767 37.1182 74.0767 37.1145 74.0767 37.1109C74.0621 36.9318 74.0694 36.749 74.0986 36.5699L74.1898 35.9595C74.3869 34.5632 73.4162 33.2693 72.0221 33.0719C71.1646 32.9513 70.3033 33.273 69.734 33.9309L69.329 34.3988C68.4057 35.4624 66.7964 35.5794 65.7308 34.6583C65.5957 34.5377 65.4717 34.4061 65.3622 34.2599L64.9936 33.7701C64.147 32.6443 62.5449 32.4177 61.421 33.2657C60.7312 33.7883 60.3517 34.6217 60.4101 35.488L60.4576 36.1021C60.5597 37.5057 59.5087 38.7265 58.1074 38.8288C58.1074 38.8288 58.1074 38.8288 58.1038 38.8288C57.9249 38.8434 57.7425 38.8361 57.5637 38.8069L56.9542 38.7155C55.5602 38.5181 54.2684 39.4904 54.0713 40.8867C53.9509 41.7457 54.272 42.6083 54.9289 43.1785L55.396 43.5842C56.4616 44.509 56.5784 46.1209 55.6551 47.1882C55.5383 47.3234 55.4033 47.4477 55.261 47.5574L54.8595 47.8608C56.2718 48.0545 57.6549 48.4529 58.9577 49.056C60.6291 49.8419 62.0267 51.1102 62.9646 52.7002C63.8587 54.2719 64.3148 56.052 64.2893 57.8576C64.2893 57.8576 64.2893 57.8577 64.2893 57.8613L64.5703 57.5396C65.0265 57.0096 65.6541 56.7172 66.3001 56.6661C66.5336 56.1214 66.7927 55.5805 67.0847 55.0578C68.4933 52.6454 70.5223 50.657 72.9637 49.3045C74.5256 48.4565 76.1896 47.8754 77.8902 47.5464C77.4559 46.6545 77.5618 45.5543 78.2478 44.7539C78.3683 44.6186 78.4996 44.4943 78.6456 44.3847L79.1383 44.0155C80.2622 43.1675 80.4885 41.5629 79.6419 40.4371L79.6309 40.4408ZM68.7305 50.7666C66.0921 51.7572 63.1544 50.4194 62.1618 47.7767C61.1728 45.134 62.5085 42.1916 65.1469 41.1974C67.7853 40.2068 70.723 41.5446 71.712 44.1873C71.712 44.1873 71.712 44.191 71.712 44.1946C72.6973 46.8337 71.358 49.7724 68.7268 50.763L68.7305 50.7666Z" fill="#BFD04A"/>
<path d="M55.3379 78.2974L49.3275 67.3721H47.6379V78.2974H40.6021V49.3594H52.4148C54.4219 49.3046 56.4144 49.7103 58.2427 50.551C59.7462 51.2564 61.0016 52.3968 61.8446 53.8297C62.6474 55.2406 63.0561 56.8415 63.0342 58.4644C63.0598 60.3139 62.4868 62.1196 61.4066 63.6182C60.217 65.2009 58.5274 66.334 56.6115 66.8311L63.2787 78.2901H55.3342L55.3379 78.2974ZM47.6452 62.3901H52.0061C53.0607 62.4705 54.1044 62.1306 54.9109 61.4434C55.5897 60.7233 55.94 59.7547 55.8816 58.7678C55.9437 57.8028 55.5897 56.8598 54.9109 56.1726C54.1081 55.4855 53.0607 55.1455 52.0061 55.2259H47.6452V62.3901Z" fill="black"/>
<path d="M73.6318 76.6856C71.3912 75.4428 69.5264 73.6116 68.2418 71.3892C65.5815 66.6485 65.5815 60.8623 68.2418 56.1216C69.5337 53.9102 71.3948 52.0863 73.6318 50.8472C78.292 48.3214 83.9119 48.3214 88.5757 50.8472C90.8054 52.0826 92.6556 53.9065 93.9219 56.1216C96.5348 60.877 96.5238 66.6412 93.8963 71.3892C92.63 73.6079 90.7798 75.4392 88.5501 76.6856C86.2766 77.9576 83.7075 78.6082 81.1019 78.579C78.489 78.6046 75.9163 77.9503 73.6318 76.6856ZM86.6342 69.8431C88.0794 68.1471 88.8238 65.965 88.7143 63.739C88.8238 61.5093 88.0794 59.3199 86.6342 57.6202C85.2147 56.0814 83.1893 55.2443 81.0983 55.3321C78.9999 55.2407 76.9636 56.0704 75.5258 57.6019C74.0734 59.3052 73.3289 61.5057 73.4494 63.7463C73.3326 65.9759 74.077 68.1654 75.5258 69.865C76.9563 71.4112 78.9963 72.2482 81.0983 72.1532C83.193 72.2482 85.2256 71.4039 86.6342 69.8468V69.8431Z" fill="black"/>
<path d="M121.302 65.9503C123.671 69.101 123.233 73.5457 120.295 76.1701C118.27 77.6943 115.766 78.4437 113.237 78.2901H99.7788V49.3594H112.781C115.241 49.2169 117.679 49.9297 119.675 51.3771C121.328 52.7076 122.251 54.7399 122.167 56.8635C122.222 58.3914 121.751 59.89 120.828 61.1072C119.919 62.2476 118.671 63.07 117.266 63.4574C118.868 63.7681 120.306 64.6563 121.299 65.9539L121.302 65.9503ZM106.815 61.067H111.424C112.369 61.1328 113.307 60.8623 114.077 60.303C114.719 59.7401 115.062 58.9068 115.004 58.0551C115.058 57.1961 114.719 56.3591 114.077 55.7852C113.314 55.2187 112.372 54.9409 111.424 55.003H106.815V61.0633V61.067ZM114.734 71.8059C115.401 71.221 115.759 70.3621 115.704 69.4739C115.752 68.5637 115.38 67.6828 114.697 67.0797C113.905 66.462 112.92 66.155 111.916 66.2134H106.815V72.6027H112.011C112.989 72.6648 113.96 72.3797 114.748 71.7985L114.734 71.8059Z" fill="black"/>
<path d="M133.097 76.6856C130.856 75.4428 128.991 73.6116 127.707 71.3892C125.046 66.6485 125.046 60.8623 127.707 56.1216C128.999 53.9102 130.86 52.0863 133.097 50.8472C137.757 48.3214 143.377 48.3214 148.041 50.8472C150.27 52.0826 152.12 53.9065 153.387 56.1216C156 60.877 155.989 66.6412 153.361 71.3892C152.095 73.6079 150.245 75.4392 148.015 76.6856C145.741 77.9576 143.172 78.6082 140.567 78.579C137.954 78.6046 135.381 77.9503 133.097 76.6856ZM146.099 69.8431C147.541 68.1471 148.285 65.965 148.176 63.739C148.281 61.5093 147.541 59.3235 146.099 57.6202C144.68 56.0814 142.654 55.2443 140.563 55.3321C138.465 55.2407 136.428 56.0704 134.991 57.6019C133.538 59.3052 132.794 61.5057 132.914 63.7463C132.797 65.9759 133.542 68.1654 134.991 69.865C136.421 71.4112 138.461 72.2482 140.563 72.1532C142.658 72.2482 144.69 71.4039 146.099 69.8468V69.8431Z" fill="black"/>
<path d="M175.998 78.2974L166.287 65.5189V78.2974H159.251V49.3594H166.287V62.0611L175.921 49.363H184.191L172.998 63.5378L184.603 78.2937H176.002L175.998 78.2974Z" fill="black"/>
<path d="M194.967 49.3594V78.2974H187.931V49.3594H194.967Z" fill="black"/>
<path d="M218.881 51.1724C221.096 52.3238 222.931 54.0929 224.169 56.2641C226.665 60.9902 226.665 66.6447 224.169 71.3709C222.935 73.5567 221.089 75.3331 218.859 76.4808C216.396 77.7309 213.659 78.3559 210.896 78.2938H200.072V49.3558H210.896C213.666 49.29 216.406 49.915 218.877 51.1687H218.884L218.881 51.1724ZM216.658 70.0075C218.217 68.3444 219.023 66.1074 218.881 63.8266C219.3 59.5793 216.202 55.7962 211.962 55.3795C211.458 55.3283 210.951 55.3283 210.447 55.3795H207.112V72.1933H210.447C212.728 72.3322 214.969 71.5463 216.662 70.0112L216.658 70.0075Z" fill="black"/>
<path d="M38.7554 47.7585H51.174C51.6995 46.9361 51.9878 45.9529 51.9403 44.9038C51.8637 43.2517 50.955 41.7494 49.5281 40.9161L48.51 40.3203C46.189 38.9678 45.4008 35.9852 46.751 33.6569C46.9262 33.3572 47.1305 33.0757 47.3641 32.8199L48.156 31.9463C49.9697 29.9579 49.8274 26.8729 47.8422 25.0599C46.6196 23.9451 44.9154 23.5247 43.317 23.9487L42.1748 24.2485C39.5765 24.9356 36.9125 23.3822 36.2228 20.7797C36.1352 20.4471 36.0841 20.1035 36.0695 19.7599L36.0221 18.583C35.898 15.8927 33.6172 13.8093 30.9277 13.9372C29.2782 14.014 27.7784 14.9241 26.9463 16.3533L26.3515 17.3731C25.0013 19.6978 22.0234 20.4873 19.6988 19.1349C19.3996 18.9594 19.1186 18.7547 18.8632 18.5208L17.991 17.7276L17.9837 17.735C15.9985 15.9183 12.9185 16.0609 11.1084 18.0493C9.99538 19.2738 9.57571 20.9807 9.99903 22.5817L10.2983 23.7258C10.9843 26.3283 9.43339 28.9965 6.8351 29.6837C6.50301 29.7714 6.15998 29.8226 5.81695 29.8372L4.64187 29.8847C1.956 30.009 -0.124097 32.2935 0.00362806 34.9874C0.0802631 36.6395 0.988936 38.1418 2.41581 38.9752L3.43396 39.571C5.75856 40.927 6.54315 43.917 5.18562 46.2416C5.0141 46.5377 4.80974 46.8119 4.57984 47.0677L3.78794 47.9413C1.97424 49.9297 2.11657 53.0147 4.10178 54.8276C5.32429 55.9425 7.02851 56.3628 8.6269 55.9388L9.76913 55.6391C12.3674 54.9519 15.0314 56.5054 15.7175 59.1079C15.805 59.4405 15.8561 59.7841 15.8707 60.1276L15.9182 61.3046C16.0386 63.9985 18.3121 66.0819 20.998 65.965C22.6548 65.8919 24.1619 64.9781 24.9976 63.5379L25.5924 62.5181C26.9427 60.1934 29.9205 59.4039 32.2451 60.7563C32.5443 60.9318 32.8253 61.1365 33.0808 61.3704L33.953 62.1636C35.2959 63.3917 37.1351 63.7207 38.7481 63.1943V47.7658L38.7554 47.7585ZM25.972 50.6827C20.0492 50.6827 15.2504 45.8725 15.2504 39.9438C15.2504 34.0151 20.0528 29.2049 25.972 29.2049C31.8911 29.2049 36.6936 34.0151 36.6936 39.9438C36.6936 45.8725 31.8911 50.6827 25.972 50.6827Z" fill="#5C9943"/>
</g>
<defs>
<clipPath id="clip0_237_242">
<rect width="308" height="106" fill="white"/>
</clipPath>
</defs>
</svg>
